<svg xmlns="http://www.w3.org/2000/svg" width="511.999" height="320.831" viewBox="0 0 511.999 320.831"><g transform="translate(0.003 -95.585)"><path d="M143.349,356.877a88.842,88.842,0,0,0,19.427-1.975,45.97,45.97,0,0,0,16.348-6.678,33.512,33.512,0,0,0,11.27-12.555c2.8-5.283,4.145-12.143,4.145-20.42,0-16.227-4.581-27.764-13.658-34.756-9.113-6.908-21.244-10.337-36.162-10.337H69.328v86.721h74.021ZM139.508,222.82c12.276,0,22.456-2.909,30.515-8.823,7.974-5.829,11.827-15.439,11.827-28.648,0-7.32-1.272-13.379-3.853-18.081a28.856,28.856,0,0,0-10.689-10.956,43.4,43.4,0,0,0-15.257-5.526,93.342,93.342,0,0,0-17.839-1.551H69.328V222.82h70.18Zm8.968-127.235a192.957,192.957,0,0,1,41.082,4,89.488,89.488,0,0,1,31.812,12.991A60.978,60.978,0,0,1,241.935,136.6c4.787,9.9,7.2,22.3,7.2,36.95q0,23.776-10.8,39.689c-7.247,10.567-17.9,19.232-32.115,25.97,19.354,5.575,33.727,15.379,43.24,29.328,9.562,14.045,14.251,30.842,14.251,50.547q0,23.958-9.173,41.288a80.328,80.328,0,0,1-24.917,28.516A109.675,109.675,0,0,1,193.8,405.219a160.5,160.5,0,0,1-41.18,5.3H0V95.585H148.476Z" fill="#fff"/><path d="M434.514,236.017c-7.453-8.229-20.045-12.688-35.423-12.688-10.01,0-18.287,1.684-24.929,5.114A50.149,50.149,0,0,0,358.3,241.01a44.95,44.95,0,0,0-8.4,16.069,71.282,71.282,0,0,0-2.848,15.028H448.947c-1.49-15.973-6.956-27.789-14.433-36.09ZM362.541,355.835C371.933,365,385.493,369.6,403.066,369.6q18.941,0,32.7-9.562c9.077-6.362,14.6-13.161,16.736-20.214h55.164c-8.871,27.449-22.31,47.045-40.67,58.849-18.142,11.84-40.246,17.741-66.023,17.741-17.96,0-34.126-2.908-48.644-8.628A103.493,103.493,0,0,1,315.5,383.26a112.2,112.2,0,0,1-23.159-37.993c-5.441-14.7-8.18-30.975-8.18-48.608a133.741,133.741,0,0,1,8.422-47.7,111.7,111.7,0,0,1,23.886-38.21A113.292,113.292,0,0,1,353.4,185.312c14.312-6.168,30.091-9.27,47.566-9.27,19.293,0,36.174,3.708,50.668,11.27a101.172,101.172,0,0,1,35.557,30.224,123.878,123.878,0,0,1,20.044,43.276,161.779,161.779,0,0,1,4.363,50.765H347.053c0,18.033,6.084,35.1,15.488,44.258Z" fill="#fff"/><rect width="127.659" height="31.072" transform="translate(334.231 116.72)" fill="#fff"/></g></svg>