<svg xmlns="http://www.w3.org/2000/svg" width="512" height="512" viewBox="0 0 512 512"><path d="M256,0C114.673,0,0,114.673,0,256S114.673,512,256,512c141.051,0,256-114.673,256-256S397.051,0,256,0ZM425.093,118.006a217.645,217.645,0,0,1,49.423,136.048c-7.219-1.387-79.411-16.1-152.156-6.937-1.664-3.61-3.056-7.5-4.72-11.387-4.444-10.547-9.442-21.376-14.439-31.652,80.523-32.763,117.171-79.964,121.892-86.072ZM256,37.76A218.179,218.179,0,0,1,400.937,92.739c-3.886,5.55-36.931,49.7-114.673,78.853-35.819-65.8-75.52-119.67-81.628-128A222.385,222.385,0,0,1,256,37.76ZM162.985,58.307c5.832,7.777,44.7,61.921,81.075,126.336C141.885,211.85,51.645,211.3,41.928,211.3,56.084,143.549,101.9,87.183,162.985,58.307ZM37.207,256.276v-6.661c9.441.277,115.507,1.664,224.625-31.1,6.384,12.217,12.216,24.71,17.766,37.208-2.775.834-5.826,1.664-8.607,2.5-112.727,36.373-172.7,135.772-177.7,144.1A218.163,218.163,0,0,1,37.207,256.276ZM256,474.793A217.131,217.131,0,0,1,121.892,428.7c3.886-8.054,48.312-93.568,171.592-136.607.552-.276.834-.276,1.387-.558,30.822,79.688,43.315,146.606,46.648,165.765A215.1,215.1,0,0,1,256,474.793Zm121.892-37.484c-2.222-13.327-13.88-77.189-42.481-155.765,68.583-10.829,128.553,6.942,136.049,9.441-9.436,60.8-44.421,113.285-93.568,146.324Z" fill="#fff" fill-rule="evenodd"/></svg>