<svg xmlns="http://www.w3.org/2000/svg" width="64" height="64" viewBox="0 0 64 64"><g transform="translate(24 16.293)"><path d="M196.705,131.758l-1.414-1.414-3,3a1,1,0,0,0,0,1.414l3,3,1.414-1.414-2.293-2.293Z" transform="translate(-191.998 -130.344)" fill="#fff"/></g><g transform="translate(35.293 16.293)"><path d="M286.758,133.344l-3-3-1.414,1.414,2.293,2.293-2.293,2.293,1.414,1.414,3-3A1,1,0,0,0,286.758,133.344Z" transform="translate(-282.344 -130.344)" fill="#fff"/></g><g transform="translate(30.05 16.687)"><rect width="6.325" height="2" transform="translate(0 6) rotate(-71.554)" fill="#fff"/></g><g transform="translate(16)"><path d="M158,0H130a2,2,0,0,0-2,2V62a2,2,0,0,0,2,2h28a2,2,0,0,0,2-2V2A2,2,0,0,0,158,0Zm0,62H130V2h28Z" transform="translate(-128)" fill="#fff"/></g><g transform="translate(20 8)"><path d="M165,66V64h-4a1,1,0,0,0-1,1v40a1,1,0,0,0,1,1h4v-2h-3V66Z" transform="translate(-160 -64)" fill="#fff"/></g><g transform="translate(39 8)"><path d="M316,64h-4v2h3v38h-3v2h4a1,1,0,0,0,1-1V65A1,1,0,0,0,316,64Z" transform="translate(-312 -64)" fill="#fff"/></g><g transform="translate(27 8)"><rect width="10" height="2" fill="#fff"/></g><g transform="translate(28 52)"><path d="M228,416a4,4,0,1,0,4,4A4,4,0,0,0,228,416Zm0,6a2,2,0,1,1,2-2A2,2,0,0,1,228,422Z" transform="translate(-224 -416)" fill="#fff"/></g><g transform="translate(28 4)"><rect width="8" height="2" fill="#fff"/></g><g transform="translate(27 48)"><rect width="10" height="2" fill="#fff"/></g><g transform="translate(0 6)"><path d="M14,50V48H1a1,1,0,0,0-1,1V99a1,1,0,0,0,1,1H14V98H2V58H14V56H2V50Z" transform="translate(0 -48)" fill="#fff"/></g><g transform="translate(4 10)"><rect width="2" height="2" fill="#fff"/></g><g transform="translate(8 10)"><rect width="2" height="2" fill="#fff"/></g><g transform="translate(12 10)"><rect width="2" height="2" fill="#fff"/></g><g transform="translate(50 6)"><path d="M413,48H400v2h12v6H400v2h12V98H400v2h13a1,1,0,0,0,1-1V49A1,1,0,0,0,413,48Z" transform="translate(-400 -48)" fill="#fff"/></g><g transform="translate(54 10)"><rect width="6" height="2" fill="#fff"/></g><g transform="translate(25 28)"><rect width="4" height="2" fill="#fff"/></g><g transform="translate(31 28)"><rect width="8" height="2" fill="#fff"/></g><g transform="translate(35 32)"><rect width="4" height="2" fill="#fff"/></g><g transform="translate(25 32)"><rect width="8" height="2" fill="#fff"/></g><g transform="translate(25 36)"><rect width="4" height="2" fill="#fff"/></g><g transform="translate(31 36)"><rect width="8" height="2" fill="#fff"/></g><g transform="translate(35 40)"><rect width="4" height="2" fill="#fff"/></g><g transform="translate(25 40)"><rect width="8" height="2" fill="#fff"/></g></svg>