<svg xmlns="http://www.w3.org/2000/svg" width="64" height="64" viewBox="0 0 64 64"><path d="M151.265,368h-2.133v4.267h-19.2V374.4h19.2v3.2a3.2,3.2,0,0,1-3.2,3.2H122.465a3.212,3.212,0,0,1-2.773-1.6l-1.847,1.067a5.355,5.355,0,0,0,4.621,2.667h23.467a5.34,5.34,0,0,0,5.333-5.333Zm0,0" transform="translate(-102.198 -318.933)" fill="#fff"/><path d="M232.5,432h2.133v2.133H232.5Zm0,0" transform="translate(-201.567 -374.4)" fill="#fff"/><path d="M58.633,28.8V26.667H55.379A13.868,13.868,0,0,0,42.633,13.921V10.667H40.5v3.254a13.863,13.863,0,0,0-2.133.333V8.533H55.433V6.4H38.366V5.333a3.2,3.2,0,0,1,3.2-3.2H65.033a3.2,3.2,0,0,1,2.116.8l1.411-1.6A5.327,5.327,0,0,0,65.033,0H41.566a5.34,5.34,0,0,0-5.333,5.333v9.6a13.885,13.885,0,0,0-8.479,11.733H24.5V28.8h3.257A13.8,13.8,0,0,0,40.5,41.551V44.8h2.133V41.551A13.8,13.8,0,0,0,55.376,28.8ZM40.5,37.333v2.084a11.689,11.689,0,0,1-4.267-1.231v-1.92a5.333,5.333,0,1,1,10.667,0v1.92a11.7,11.7,0,0,1-4.267,1.234V37.333ZM38.366,25.6a3.2,3.2,0,1,1,3.2,3.2A3.2,3.2,0,0,1,38.366,25.6ZM49.388,36.48c-.115.106-.238.192-.355.29v-.5A7.467,7.467,0,0,0,45,29.645a5.333,5.333,0,1,0-6.872,0A7.467,7.467,0,0,0,34.1,36.267v.509c-.118-.1-.241-.188-.355-.29A11.739,11.739,0,0,1,29.89,28.8h2.077V26.667H29.887A11.745,11.745,0,0,1,40.5,16.054v2.079h2.133V16.054A11.745,11.745,0,0,1,53.246,26.667H51.166V28.8h2.077a11.739,11.739,0,0,1-3.855,7.685Zm0,0" transform="translate(-21.3 0)" fill="#fff"/><path d="M297.033,46.933a1.067,1.067,0,0,0,1.067-1.067v-12.8A1.067,1.067,0,0,0,297.033,32H273.567a1.067,1.067,0,0,0-1.067,1.067v12.8a1.067,1.067,0,0,0,1.067,1.067Zm-22.4-12.8h21.333V44.8H274.633Zm0,0" transform="translate(-236.233 -27.733)" fill="#fff"/><path d="M304.5,64h4.267v2.133H304.5Zm0,0" transform="translate(-263.967 -55.467)" fill="#fff"/><path d="M352.5,64h10.667v2.133H352.5Zm0,0" transform="translate(-305.567 -55.467)" fill="#fff"/><path d="M304.5,96h17.067v2.133H304.5Zm0,0" transform="translate(-263.967 -83.2)" fill="#fff"/><path d="M269.105,160a3.382,3.382,0,0,0-2.24.853l-9.3,8.2V160h-2.133v10.667h.308l-6.068,5.355a7.467,7.467,0,0,0-7.04,7.445v1.882a2.773,2.773,0,0,1-1.543,2.5,1.067,1.067,0,0,0,.477,2.021h7.467a7.467,7.467,0,0,0,7.445-7.04l15.175-17.2a3.389,3.389,0,0,0-2.542-5.63Zm-20.078,27.733h-4.878a4.921,4.921,0,0,0,.611-2.385v-1.882a5.34,5.34,0,0,1,4.907-5.316l4.676,4.676A5.34,5.34,0,0,1,249.027,187.733Zm21.02-23.515-14.668,16.624-3.728-3.727,16.624-14.669a1.256,1.256,0,0,1,1.772,1.772Zm0,0" transform="translate(-208.494 -138.666)" fill="#fff"/><path d="M1.567,336H25.033a1.067,1.067,0,0,0,1.067-1.067V326.4a1.067,1.067,0,0,0-1.067-1.067H17.567V320H15.433v5.333H1.567A1.067,1.067,0,0,0,.5,326.4v8.533A1.067,1.067,0,0,0,1.567,336Zm1.067-8.533H23.967v6.4H2.633Zm0,0" transform="translate(-0.5 -277.333)" fill="#fff"/><path d="M32.5,392h5.333v2.133H32.5Zm0,0" transform="translate(-28.233 -339.733)" fill="#fff"/><path d="M88.5,392h9.6v2.133H88.5Zm0,0" transform="translate(-76.767 -339.733)" fill="#fff"/><path d="M1.567,42.667H12.233A1.067,1.067,0,0,0,13.3,41.6V33.067A1.067,1.067,0,0,0,12.233,32H1.567A1.067,1.067,0,0,0,.5,33.067V41.6A1.067,1.067,0,0,0,1.567,42.667Zm1.067-8.533h8.533v6.4H2.633Zm0,0" transform="translate(-0.5 -27.733)" fill="#fff"/><path d="M32.5,64h4.267v2.133H32.5Zm0,0" transform="translate(-28.233 -55.467)" fill="#fff"/></svg>