<svg xmlns="http://www.w3.org/2000/svg" width="53.333" height="64" viewBox="0 0 53.333 64"><path d="M240,368h9.6v2.133H240Z" transform="translate(-215.467 -321.067)" fill="#fff"/><path d="M200,368h3.2v2.133H200Z" transform="translate(-180.8 -321.067)" fill="#fff"/><path d="M272,400h13.867v2.133H272Z" transform="translate(-243.2 -348.8)" fill="#fff"/><path d="M192,400h8.533v2.133H192Z" transform="translate(-173.867 -348.8)" fill="#fff"/><path d="M136,400h5.333v2.133H136Z" transform="translate(-125.333 -348.8)" fill="#fff"/><path d="M183.467,175.466h6.4a1.066,1.066,0,0,0,.592-.179l6.4-4.267a1.067,1.067,0,0,0,.475-.887V158.4a1.067,1.067,0,0,0-.549-.932l-9.6-5.333a1.066,1.066,0,0,0-1.036,0l-9.6,5.333a1.067,1.067,0,0,0-.549.932v11.733a1.067,1.067,0,0,0,.475.887l6.4,4.267A1.066,1.066,0,0,0,183.467,175.466Zm3.2-21.18,7.4,4.113-7.4,4.113-7.4-4.113Zm-8.533,5.926,8.015,4.453a1.066,1.066,0,0,0,1.036,0l8.015-4.453v9.35l-5.656,3.771H183.79l-5.656-3.771Z" transform="translate(-160 -133.866)" fill="#fff"/><path d="M59.2,80h46.933a3.2,3.2,0,0,0,3.2-3.2V19.2a3.2,3.2,0,0,0-3.2-3.2H59.2A3.2,3.2,0,0,0,56,19.2V76.8A3.2,3.2,0,0,0,59.2,80Zm46.933-2.133H59.2A1.068,1.068,0,0,1,58.133,76.8V26.667H107.2V76.8A1.068,1.068,0,0,1,106.133,77.867ZM59.2,18.133h46.933A1.068,1.068,0,0,1,107.2,19.2v5.333H58.133V19.2A1.068,1.068,0,0,1,59.2,18.133Z" transform="translate(-56 -16)" fill="#fff"/><circle cx="1.067" cy="1.067" r="1.067" transform="translate(4.267 4.267)" fill="#fff"/><circle cx="1.067" cy="1.067" r="1.067" transform="translate(7.467 4.267)" fill="#fff"/><circle cx="1.067" cy="1.067" r="1.067" transform="translate(10.667 4.267)" fill="#fff"/></svg>